<svg width="13" height="13" viewBox="0 0 128 128" fill="none" xmlns="http://www.w3.org/2000/svg">
<path fill-rule="evenodd" clip-rule="evenodd" d="M80.8195 9.67341C66.849 6.74934 57.4457 13.798 51.8745 21.0204C49.3703 24.2669 47.5644 27.6203 46.3403 30.2957C45.7724 29.9243 45.1563 29.5623 44.4948 29.2272C42.3859 28.1591 39.7346 27.3273 36.6874 27.4285C33.605 27.5309 30.3839 28.5808 27.175 30.8728C20.6535 35.531 18.6903 42.0812 18.3229 47.1512C18.1808 49.1123 18.2704 50.8951 18.4315 52.3416C16.3411 53.1725 13.6188 54.5752 10.9001 56.9004C5.20263 61.7733 0 70.2884 0 84.6277C0 99.2485 6.4334 108.121 13.0561 113.232C16.3049 115.739 19.5389 117.301 21.9603 118.24C23.1757 118.711 24.2006 119.031 24.9405 119.237C25.3109 119.339 25.6113 119.414 25.83 119.465C25.9395 119.491 26.0286 119.511 26.096 119.525C26.1297 119.533 26.158 119.538 26.1807 119.543L26.2106 119.549L26.2223 119.551L26.2274 119.552C26.2297 119.553 26.2319 119.553 26.9999 115.628L26.2319 119.553L26.6123 119.628H102.877L103.248 119.557L102.5 115.628C103.248 119.557 103.251 119.557 103.253 119.556L103.259 119.555L103.271 119.553L103.302 119.547C103.325 119.542 103.354 119.536 103.387 119.529L103.459 119.514C103.512 119.502 103.574 119.488 103.645 119.472C103.855 119.423 104.14 119.351 104.489 119.253C105.187 119.056 106.147 118.748 107.282 118.289C109.545 117.372 112.551 115.834 115.561 113.326C121.71 108.202 127.5 99.3319 127.5 84.6277C127.5 69.9886 122.005 61.4346 115.999 56.6293C113.073 54.2883 110.149 52.9358 107.946 52.1648C107.76 52.0995 107.578 52.0382 107.401 51.9807C107.352 51.1145 107.279 50.0961 107.169 48.9576C106.816 45.2882 106.083 40.2965 104.544 35.0978C101.53 24.9179 94.9912 12.6396 80.8195 9.67341ZM51.846 38.1879L51.8464 38.1862L51.8472 38.1835L51.8564 38.1527C51.8672 38.1163 51.886 38.0546 51.9128 37.9693C51.9664 37.7987 52.0523 37.5344 52.172 37.1912C52.4118 36.5038 52.7854 35.5063 53.3058 34.3155C54.3541 31.9171 55.961 28.8209 58.209 25.9066C62.6656 20.1291 69.2623 15.4278 79.1805 17.5037C88.8975 19.5375 94.1082 28.0288 96.8727 37.3685C98.2229 41.9297 98.8849 46.3852 99.2058 49.7232C99.3655 51.3846 99.439 52.7506 99.4726 53.6907C99.4894 54.1603 99.4961 54.5224 99.4988 54.7606C99.4997 54.8426 99.5001 54.9099 99.5003 54.9618C99.5004 54.9851 99.5004 55.0054 99.5004 55.0224L99.5003 55.0795L99.5002 55.0852L99.5002 55.0889L99.4623 58.6542L102.977 59.0934L102.981 59.094C102.992 59.0957 103.017 59.0995 103.054 59.1059C103.14 59.1204 103.289 59.1479 103.495 59.1933C103.906 59.2844 104.533 59.446 105.304 59.7157C106.851 60.2572 108.927 61.2172 111.001 62.8762C114.995 66.0709 119.5 72.2669 119.5 84.6277C119.5 96.9236 114.79 103.554 110.439 107.18C108.199 109.047 105.954 110.195 104.28 110.873C103.447 111.211 102.766 111.426 102.316 111.554C102.211 111.583 102.12 111.608 102.042 111.628H27.4554C27.3529 111.602 27.2281 111.569 27.0828 111.529C26.5649 111.385 25.793 111.146 24.8521 110.781C22.961 110.048 20.4451 108.829 17.9438 106.899C13.0666 103.135 8 96.507 8 84.6277C8 72.4671 12.2974 66.2322 16.0999 62.9801C18.0678 61.297 20.0319 60.3042 21.4858 59.7367C22.2104 59.4539 22.7983 59.2806 23.1811 59.182C23.3721 59.1329 23.5105 59.1027 23.5876 59.0869C23.6179 59.0807 23.6386 59.0768 23.6492 59.0748L28.1317 58.367L26.8403 54.009L26.84 54.0079L26.8392 54.0049C26.8369 53.9968 26.8316 53.9777 26.8237 53.948C26.8073 53.8861 26.7798 53.7788 26.7455 53.6307C26.6767 53.3337 26.5817 52.8774 26.4933 52.298C26.315 51.1291 26.1725 49.5156 26.302 47.7293C26.5596 44.1743 27.8463 40.2245 31.8249 37.3827C33.866 35.9247 35.5825 35.4696 36.9531 35.4241C38.3591 35.3774 39.6766 35.7544 40.8802 36.3641C42.096 36.9798 43.1128 37.7928 43.8391 38.4789C44.1956 38.8157 44.4648 39.1055 44.6353 39.2989C44.7201 39.3951 44.7792 39.466 44.8111 39.505L44.8261 39.5234L44.8346 39.534L49.6651 45.8504L51.8451 38.1907L51.846 38.1879ZM45.4062 54.0508L28.9121 97H34.9473L39.6641 83.9922H57.623L62.6328 97H69.1074L51.5293 54.0508H45.4062ZM55.8652 79.3633H41.3047L46.0215 66.7656C47.0176 64.0508 47.7891 61.3164 48.3359 58.5625C49 60.8867 50.0156 63.8555 51.3828 67.4688L55.8652 79.3633ZM76.8125 84.959L71.5391 85.6621C71.8906 89.2363 73.3066 92.1465 75.7871 94.3926C78.2871 96.6387 81.4219 97.7617 85.1914 97.7617C89.3711 97.7617 92.8281 96.4629 95.5625 93.8652C98.2969 91.248 99.6641 88.0645 99.6641 84.3145C99.6641 81.541 98.9609 79.2363 97.5547 77.4004C96.1484 75.5449 94.1758 74.3242 91.6367 73.7383C93.5898 72.8398 95.0645 71.6289 96.0605 70.1055C97.0566 68.582 97.5547 66.8926 97.5547 65.0371C97.5547 63.084 97.0273 61.2383 95.9727 59.5C94.9375 57.7617 93.4336 56.3945 91.4609 55.3984C89.4883 54.3828 87.3301 53.875 84.9863 53.875C81.5879 53.875 78.7461 54.8516 76.4609 56.8047C74.1758 58.7383 72.7109 61.4727 72.0664 65.0078L77.3398 65.9453C77.7305 63.3672 78.6094 61.4336 79.9766 60.1445C81.3438 58.8555 83.0527 58.2109 85.1035 58.2109C87.1738 58.2109 88.8633 58.8457 90.1719 60.1152C91.4805 61.3848 92.1348 62.9863 92.1348 64.9199C92.1348 67.3613 91.2363 69.168 89.4395 70.3398C87.6426 71.5117 85.6211 72.0977 83.375 72.0977C83.1602 72.0977 82.877 72.0781 82.5254 72.0391L81.9395 76.668C83.4238 76.2773 84.6641 76.082 85.6602 76.082C88.1016 76.082 90.1133 76.873 91.6953 78.4551C93.2773 80.0176 94.0684 82.0098 94.0684 84.4316C94.0684 86.9707 93.209 89.0996 91.4902 90.8184C89.791 92.5371 87.7012 93.3965 85.2207 93.3965C83.1309 93.3965 81.3535 92.7422 79.8887 91.4336C78.4434 90.1055 77.418 87.9473 76.8125 84.959Z" fill="black"/>
</svg>
